<svg xmlns="http://www.w3.org/2000/svg" viewBox="0 0 320 80" width="320" height="80" role="img" aria-label="Hamys Reinigung">
  <defs>
    <linearGradient id="hr-grad-full" x1="0" y1="0" x2="1" y2="1">
      <stop offset="0" stop-color="#38bdf8"/>
      <stop offset="1" stop-color="#0369a1"/>
    </linearGradient>
  </defs>

  <!-- Mark -->
  <g transform="translate(8,8)">
    <rect x="0" y="0" width="64" height="64" rx="16" fill="url(#hr-grad-full)"/>
    <path d="M32 13 C32 13 19 28 19 38 a13 13 0 0 0 26 0 C45 28 32 13 32 13 Z" fill="#ffffff"/>
    <path d="M27 33 c-2 3 -2.5 6 -1 9 c-3.5 -2 -4.5 -7 -1.5 -11 c0.8 -1.1 2.4 -0.8 2.5 0.6 Z" fill="#bae6fd"/>
    <path d="M47 16 l1.6 4.4 4.4 1.6 -4.4 1.6 -1.6 4.4 -1.6 -4.4 -4.4 -1.6 4.4 -1.6 Z" fill="#fbbf24"/>
    <circle cx="16" cy="20" r="2" fill="#fde68a"/>
  </g>

  <!-- Wordmark -->
  <g font-family="'Poppins','Segoe UI',sans-serif">
    <text x="86" y="38" font-size="26" font-weight="700" fill="#0f172a">Hamys</text>
    <text x="86" y="64" font-size="20" font-weight="600" letter-spacing="1.5" fill="#0ea5e9">REINIGUNG</text>
  </g>
</svg>
